<?xml version="1.0" standalone="no"?>
<!DOCTYPE svg PUBLIC "-//W3C//DTD SVG 20010904//EN"
 "http://www.w3.org/TR/2001/REC-SVG-20010904/DTD/svg10.dtd">
<svg version="1.0" xmlns="http://www.w3.org/2000/svg"
 width="225.000000pt" height="225.000000pt" viewBox="0 0 225.000000 225.000000"
 preserveAspectRatio="xMidYMid meet">
<metadata>
Created by potrace 1.10, written by Peter Selinger 2001-2011
</metadata>
<g transform="translate(0.000000,225.000000) scale(0.100000,-0.100000)"
fill="#000000" stroke="none">
<path d="M1133 1758 c-11 -13 -49 -74 -84 -136 -35 -63 -73 -123 -84 -136 -14
-15 -54 -31 -130 -50 -61 -15 -182 -47 -270 -71 -164 -43 -323 -85 -477 -125
-68 -18 -88 -27 -88 -40 0 -19 15 -17 180 28 41 12 138 37 215 57 232 61 359
94 527 140 56 16 57 17 104 98 112 194 137 237 139 235 1 -2 13 -23 27 -48 14
-25 46 -82 72 -126 47 -81 48 -81 94 -87 55 -7 278 -41 412 -62 106 -17 250
-39 355 -55 39 -5 82 -13 98 -16 19 -4 27 -2 27 9 0 10 -23 17 -82 26 -46 7
-137 21 -203 32 -66 11 -178 29 -250 39 -71 11 -157 24 -190 30 -33 5 -80 12
-105 15 -83 12 -92 19 -149 123 -57 102 -87 142 -106 142 -6 0 -21 -10 -32
-22z"/>
<path d="M1096 1581 c-31 -54 -62 -104 -71 -111 -28 -23 -16 -27 37 -14 29 8
62 14 73 14 18 1 19 1 2 11 -9 5 -22 7 -27 4 -6 -3 -13 1 -16 9 -6 17 45 118
62 123 7 2 27 -22 45 -54 17 -32 39 -66 48 -77 9 -10 15 -20 13 -22 -3 -4 17
-41 46 -86 9 -14 32 -53 51 -85 18 -32 39 -61 45 -65 6 -4 8 -8 4 -8 -4 0 6
-21 22 -47 17 -26 30 -53 30 -60 0 -11 -57 -13 -299 -13 -277 1 -299 2 -294
18 9 25 124 224 141 245 11 12 31 17 76 18 l61 1 -55 13 c-87 22 -93 20 -120
-32 -14 -26 -44 -80 -67 -119 -24 -39 -43 -76 -43 -82 0 -6 -3 -12 -7 -14 -13
-5 -43 -65 -36 -71 11 -12 681 -8 689 4 3 6 -3 24 -15 40 -11 15 -21 30 -21
33 0 2 -22 43 -50 91 -27 48 -50 88 -50 90 0 2 -22 39 -48 82 -26 43 -72 120
-101 171 -29 50 -56 92 -61 92 -5 0 -34 -44 -64 -99z"/>
<path d="M1515 1420 c55 -16 247 -48 238 -40 -4 4 -62 17 -128 29 -125 22
-162 25 -110 11z"/>
<path d="M895 1399 c-102 -28 -166 -46 -295 -79 -63 -17 -137 -36 -165 -44
-172 -47 -323 -87 -392 -106 -26 -6 -43 -17 -43 -25 0 -24 -45 -34 545 125
332 89 345 92 345 85 0 -2 -37 -70 -81 -151 l-82 -146 21 -20 c20 -21 29 -21
417 -20 406 1 425 3 425 40 0 8 -25 60 -55 114 -59 106 -65 122 -37 114 19 -6
584 -149 680 -173 61 -15 86 -12 66 7 -5 5 -144 43 -309 85 -165 42 -340 87
-390 100 -114 29 -130 35 -115 45 9 5 6 10 -9 15 -13 4 -24 5 -26 3 -2 -2 35
-71 82 -153 47 -83 87 -155 89 -160 3 -8 -68 -10 -223 -9 -125 1 -311 3 -412
3 -174 1 -183 2 -169 19 13 15 60 96 146 252 14 25 34 57 44 73 11 15 18 27
16 26 -2 0 -34 -9 -73 -20z"/>
<path d="M1374 1411 c3 -4 20 -11 38 -14 18 -3 65 -13 103 -22 39 -9 79 -18
90 -20 96 -20 124 -27 152 -36 18 -6 46 -11 62 -11 17 -1 28 -4 26 -8 -3 -4
19 -11 48 -15 28 -4 59 -9 67 -11 8 -1 73 -17 143 -34 148 -35 147 -35 147
-16 0 17 -10 21 -110 40 -41 8 -131 27 -200 41 -254 54 -555 115 -563 115 -5
0 -6 -4 -3 -9z"/>
<path d="M1820 1400 c34 -13 360 -68 360 -60 0 3 -76 18 -169 34 -93 15 -180
29 -192 32 -23 4 -23 4 1 -6z"/>
<path d="M1790 1370 c21 -7 186 -39 284 -55 44 -7 139 -26 159 -31 9 -3 17 -1
17 4 0 4 -33 14 -72 20 -78 13 -111 19 -283 51 -115 22 -147 25 -105 11z"/>
<path d="M1635 1305 c65 -18 93 -18 35 1 -25 7 -54 13 -65 13 -11 0 3 -7 30
-14z"/>
<path d="M1765 1274 c28 -7 57 -13 65 -13 8 0 -7 7 -35 15 -27 7 -57 13 -65
13 -8 0 8 -7 35 -15z"/>
<path d="M1865 1251 c11 -5 38 -11 60 -14 l40 -6 -40 14 c-22 7 -49 14 -60 14
-20 0 -20 0 0 -8z"/>
<path d="M2010 1215 c76 -22 232 -56 237 -52 5 5 -246 67 -267 66 -8 0 5 -6
30 -14z"/>
</g>
</svg>
